<svg version="1" xmlns="http://www.w3.org/2000/svg" width="682.667" height="682.667" viewBox="0 0 512.000000 512.000000"><path d="M81.3 1.9c-6.4 2.2-11.2 5.8-16.4 12.4-20 25.3-28.2 85.4-19.2 140.9l1.7 10.7-5.6 8.3C23.9 200.6 12 230.9 7.9 261c-1.7 12.2-1.7 40.9-.1 52.5 11 76.1 63.9 140.8 141.4 172.8 4.8 2 10.9 5 13.6 6.7 15 9.2 39.5 15.6 68.6 18 47.1 3.7 94.1-3.4 117.8-18 2.7-1.7 8.8-4.7 13.6-6.7 77.5-32 130.4-96.7 141.4-172.8 1.6-11.6 1.6-40.3-.1-52.5-4.1-30.1-16-60.4-33.9-86.8l-5.6-8.3 1.7-10.7c3.8-23.2 4.6-45 2.7-68.2-4.3-51.8-20.8-83.8-44.7-86.6-25.4-3.1-79.1 27.6-114.9 65.5l-5.1 5.4-14.6-1.7c-8.5-.9-22.5-1.6-33.7-1.6-11.2 0-25.2.7-33.7 1.6l-14.6 1.7-5.1-5.4c-20.2-21.4-49.9-43.4-74.1-55C107.2.8 92.6-2 81.3 1.9zm25.4 21.5c20.2 6.9 55.6 30.1 73.1 47.9l5.3 5.4-8.1 2.2-8.1 2.2-8.7-7.6c-10.9-9.5-26-19.8-34.1-23-8.5-3.5-16.5-4.2-22.9-2.1C86 54.2 78 75.8 78 117.1v15.7l-6.7 6.6-6.8 6.5-.8-3.7c-.4-2-1-13.2-1.3-24.7-.7-23.7.9-41.8 5.1-59.2C71.9 40.1 78.8 26 85.2 21.9c4.1-2.5 11-2.1 21.5 1.5zM426.8 22c6.4 3.9 13.3 18 17.7 36.3 4.2 17.4 5.8 35.5 5.1 59.2-.3 11.5-.9 22.7-1.3 24.7l-.8 3.7-6.7-6.5-6.8-6.6v-15.7c0-41.3-8-62.9-25.2-68.7-6.4-2.1-14.4-1.4-22.9 2.1-8.1 3.2-23.2 13.5-34.1 23l-8.7 7.6-8.1-2.2-8.1-2.2 5.3-5.4c17.6-18 54.5-42 73.8-48.1 11.9-3.8 16.1-4 20.8-1.2zM122.4 70.9c7.2 3.7 24.6 16.4 24.6 17.9 0 .4-6.2 3.7-13.8 7.4-7.5 3.6-18.6 9.8-24.6 13.8l-10.9 7.1.6-12.3c.6-13.8 2.9-26.3 5.8-31.9 3.6-7.1 7.6-7.6 18.3-2zM404.1 68c4.9 2.7 8.7 17.1 9.6 36.8l.6 12.3-10.9-7.1c-6-4-17.1-10.2-24.6-13.8-7.6-3.7-13.8-7-13.8-7.4 0-1.5 17.4-14.2 24.6-17.9 7.7-4 11.1-4.7 14.5-2.9zM287.7 89.5c89.4 11.4 163 66.4 188.7 141.1 27 78.8-5 165.1-79.9 215.1-10 6.7-13.5 8.7-13.5 7.7 0-.3.8-3.4 1.7-6.8 2.6-9.6 2.4-32.3-.6-45.1-1.3-5.5-2.5-11.2-2.8-12.7l-.5-2.8h7.1c8.3 0 20.2 2.2 26.7 5 6.4 2.8 11.9 2.6 14.9-.4 3.6-3.6 4.2-7.3 1.9-11.5-1.6-3-3.2-4.1-9.9-6.8-12.7-5-22.9-6.7-37.1-6l-12.1.6-2.6-5.5c-1.5-3-2.7-5.7-2.7-5.9 0-1 8-4.4 17-7.3 16.7-5.3 31.8-6.8 49.1-5.1 18 1.9 18.7 1.8 22.1-1.9 5.5-6.2 2.8-14-5.6-16.1-2.4-.6-9.9-1.6-16.6-2.1-23.9-2.1-48.7 2.2-70.9 12.1-3.5 1.6-6.5 2.9-6.6 2.9-.5 0-8.7-11.2-8.3-11.5.1-.1 3.7-2.5 7.8-5.2 16.9-11.3 32.4-16.8 54.5-19.3 5.5-.6 11.3-1.6 12.8-2.2 6.1-2.4 7.2-11.1 2.1-15.9-2.4-2.2-3.3-2.4-11.2-2.1-24.1.7-54.5 11.4-74.1 26.1-3 2.3-5.8 4.1-6.3 4.1-.4 0-3.7-2.4-7.3-5.3-3.6-2.8-10.3-7.5-14.8-10.3-7.2-4.5-8.2-5.5-8.9-8.8-3.5-16.5-19.7-25.6-45.8-25.6-26.1 0-42.3 9.1-45.8 25.6-.7 3.3-1.7 4.3-8.9 8.8-4.5 2.8-11.2 7.5-14.8 10.4-3.6 2.8-6.9 5.2-7.3 5.2-.5 0-3.3-1.8-6.3-4.1-19.6-14.7-50-25.4-74.1-26.1-7.9-.3-8.8-.1-11.2 2.1-5.1 4.8-4 13.5 2.1 15.9 1.5.6 7.3 1.6 12.8 2.2 22.1 2.5 37.6 8 54.5 19.3 4.1 2.7 7.7 5.1 7.8 5.2.4.3-7.8 11.5-8.3 11.5-.1 0-3.1-1.3-6.6-2.9-22.2-9.9-47-14.2-70.9-12.1-6.7.5-14.2 1.5-16.6 2.1-8.4 2.1-11.1 9.9-5.6 16.1 3.4 3.7 4.1 3.8 22.1 1.9 17.3-1.7 32.4-.2 49.1 5.1 9 2.9 17 6.3 17 7.3 0 .2-1.2 2.9-2.7 5.9l-2.6 5.5-12.1-.6c-14.2-.7-24.4 1-37.1 6-6.7 2.7-8.3 3.8-9.9 6.8-2.3 4.2-1.7 7.9 1.9 11.5 3 3 8.5 3.2 14.9.4 6.5-2.8 18.4-5 26.7-5h7.1l-.5 2.8c-.3 1.5-1.5 7.2-2.8 12.7-3 12.8-3.2 35.5-.6 45.1.9 3.4 1.7 6.5 1.7 6.8 0 1-3.5-1-13.5-7.7-30.8-20.5-56.2-49.2-71.1-80.2C0 273.3 39 168.9 137.3 116.6c25.3-13.5 55.5-23 85.7-27 14.6-1.9 49.9-2 64.7-.1zM275 284.6c5.9 2.7 7.3 4.6 7.3 9.7 0 5.2-2.2 9.7-7.3 14.5-8.8 8.6-19.4 11.6-27.1 7.7-12.7-6.5-20.2-16.9-18.1-24.9 1.9-6.9 10.4-9.7 28.2-9.3 10 .3 13.4.7 17 2.3zm-51.4 39c4.3 4.2 8.7 7.3 14.3 10l8 3.9.1 20.1v20l-2.7 2.6c-3.4 3.2-7.3 4.8-11.8 4.8-5.5 0-8.7-1.7-14.6-8-4.9-5.2-6.1-6-9.3-6-4.8 0-7.2 1.3-9.2 5.2-2.1 4.1-1.3 7.9 3.1 13.8 3.8 5.2 8.5 8.7 16 12.2 4 1.8 6.7 2.3 14 2.3 7.8 0 9.8-.4 15-2.8 3.3-1.5 6.7-3.5 7.7-4.4 1.7-1.5 1.9-1.5 3.6 0 1 .9 4.4 2.9 7.7 4.4 5.2 2.4 7.2 2.8 15 2.8 7.3 0 10-.5 14-2.3 7.5-3.5 12.2-7 16-12.2 4.4-5.9 5.2-9.7 3.1-13.8-2-3.9-4.4-5.2-9.2-5.2-3.2 0-4.4.8-9.3 6-5.9 6.3-9.1 8-14.6 8-4.5 0-8.4-1.6-11.7-4.8l-2.8-2.6v-40.1l6.9-3.2c8.7-4.1 15.9-9.8 21.2-16.8l4.2-5.5 3.1 1.9c32.5 20.6 58.4 60.2 64.1 98 3.7 24.5-.4 40.9-13.6 54-12.3 12.3-29.5 19.2-58.4 23.8-15.6 2.4-59.4 2.4-75 0-28.9-4.6-46.1-11.5-58.4-23.8-13.2-13.1-17.3-29.5-13.6-54 5.4-36.4 29.6-74.5 60.5-95.6l6.5-4.4 2 2.8c1.1 1.5 4.7 5.5 8.1 8.9z"/><path d="M203 108.4c-13.4 3.1-26.5 7.1-36.6 11.2-13.3 5.4-28.2 13.2-29.4 15.3-.5 1.1-1 3.8-1 5.9 0 3.3.6 4.5 3.1 6.6 4 3.4 7.6 3.3 15-.4 15.7-8 38.9-16.1 55.9-19.6 10.3-2.1 14-5 14-10.9 0-4.7-1.3-7.1-5-9-3.6-1.8-4.2-1.8-16 .9zM116.1 147.4c-5.6 3.1-6.6 9.9-2.2 14.8 2.4 2.7 3.6 3.3 7.1 3.3 3.5 0 4.7-.6 7.1-3.3 3.3-3.6 3.6-6.9 1.4-11.3-2.4-4.6-8.5-6.2-13.4-3.5zM185.5 203.2c-11.6 1.5-25.5 11-30.5 20.8-2.7 5.4-2.5 8.4.9 12.2 2.4 2.7 3.6 3.3 7.1 3.3 3.9 0 4.6-.5 10.3-6.8 7-7.6 11.4-9.8 19.2-9.8 6.2 0 11.9 2.5 16.1 7.2 9.1 10.2 11 11.1 16.7 8.4 7.1-3.3 7.3-10.4.6-19.3-9-11.9-24.7-18.1-40.4-16zM313.7 203.2c-10.7 1.4-21.2 7.5-27.7 16.2-6.6 8.7-6.3 15.8.7 19.1 5.7 2.7 7.6 1.8 16.7-8.4 4.2-4.7 9.9-7.2 16.1-7.2 7.8 0 12.2 2.2 19.2 9.8 5.7 6.3 6.4 6.8 10.3 6.8 3.5 0 4.7-.6 7.1-3.3 1.6-1.8 2.9-4.4 2.9-5.8 0-3.6-3.2-9.3-8-14.2-10.1-10.5-23-15-37.3-13z"/></svg>